<?xml version="1.0" encoding="UTF-8" standalone="no"?>
<svg
   xmlns:dc="http://purl.org/dc/elements/1.1/"
   xmlns:cc="http://creativecommons.org/ns#"
   xmlns:rdf="http://www.w3.org/1999/02/22-rdf-syntax-ns#"
   xmlns:svg="http://www.w3.org/2000/svg"
   xmlns="http://www.w3.org/2000/svg"
   viewBox="0 0 1102.52 1102.52"
   height="1102.52"
   width="1102.52"
   xml:space="preserve"
   id="svg2"
   version="1.1"><metadata
     id="metadata8"><rdf:RDF><cc:Work
         rdf:about=""><dc:format>image/svg+xml</dc:format><dc:type
           rdf:resource="http://purl.org/dc/dcmitype/StillImage" /></cc:Work></rdf:RDF></metadata><defs
     id="defs6"><clipPath
       id="clipPath54"
       clipPathUnits="userSpaceOnUse"><path
         id="path52"
         d="M 1837.15,2923.96 H 5995.2 V 6318.71 H 1837.15 Z" /></clipPath><clipPath
       id="clipPath84"
       clipPathUnits="userSpaceOnUse"><path
         id="path82"
         d="M 3060.22,2672.67 H 5348.69 V 5387.34 H 3060.22 Z" /></clipPath></defs><g
     transform="matrix(1.3333333,0,0,-1.3333333,0,1102.52)"
     id="g10"><g
       transform="scale(0.1)"
       id="g12"><path
         id="path14"
         style="fill:#91e5d2;fill-opacity:1;fill-rule:nonzero;stroke:none"
         d="M 8268.94,0 H 0 V 8268.94 H 8268.94 V 0" /><path
         id="path16"
         style="fill:#72b5b3;fill-opacity:1;fill-rule:nonzero;stroke:none"
         d="m 1487.04,1043.09 c 0,0 697.13,472.72 5620.19,58.03 0,0 -1879.59,-565.14 -5620.19,-58.03" /><path
         id="path18"
         style="fill:#3f3b34;fill-opacity:1;fill-rule:nonzero;stroke:none"
         d="M 6809.67,4100.72 C 6854.82,2616.14 5687.93,1376.08 4203.37,1330.89 2718.79,1285.76 1478.71,2452.61 1433.57,3937.21 1388.4,5421.77 2555.3,6661.85 4039.83,6707.02 c 1484.6,45.13 2724.68,-1121.73 2769.84,-2606.3" /><path
         id="path20"
         style="fill:#80c1ca;fill-opacity:1;fill-rule:nonzero;stroke:none"
         d="m 3911.69,6590.22 c 1494.95,45.47 2743.72,-1129.56 2789.21,-2624.52 2.91,-96.82 0.53,-192.57 -6.52,-287.08 17.94,136.85 25.62,276.81 21.3,419.25 -43.57,1432.65 -1240.31,2558.74 -2672.97,2515.14 -142.43,-4.32 -281.66,-20.5 -417.16,-46.72 93.93,12.77 189.33,21.01 286.14,23.93" /><path
         id="path22"
         style="fill:#fbf4e0;fill-opacity:1;fill-rule:nonzero;stroke:none"
         d="M 1579.6,4066.72 C 1625.07,2571.76 2873.82,1396.7 4368.81,1442.2 c 96.84,2.93 192.24,11.14 286.14,23.93 -135.49,-26.22 -274.73,-42.4 -417.14,-46.74 -1432.72,-43.6 -2629.43,1082.5 -2673.01,2515.18 -4.32,142.43 3.38,282.38 21.31,419.23 -7.04,-94.5 -9.44,-190.25 -6.51,-287.08" /><path
         id="path24"
         style="fill:#b19f8a;fill-opacity:1;fill-rule:nonzero;stroke:none"
         d="M 6584.1,4093.85 C 6625.45,2733.86 5556.48,1597.83 4196.51,1556.49 2836.52,1515.11 1700.48,2584.05 1659.14,3944.04 1617.77,5304.05 2686.72,6440.06 4046.72,6481.44 5406.7,6522.81 6542.73,5453.85 6584.1,4093.85" /><path
         id="path26"
         style="fill:#dfdccb;fill-opacity:1;fill-rule:nonzero;stroke:none"
         d="M 6471.31,4090.42 C 6510.8,2792.73 5490.76,1708.73 4193.08,1669.24 2895.4,1629.79 1811.39,2649.78 1771.91,3947.48 c -39.46,1297.71 980.54,2381.71 2278.25,2421.19 1297.67,39.47 2381.68,-980.55 2421.15,-2278.25" /><path
         id="path28"
         style="fill:#fbf4e0;fill-opacity:1;fill-rule:nonzero;stroke:none"
         d="M 6070.29,4078.24 C 6103.01,3001.99 5257.13,2103 4180.88,2070.27 3104.64,2037.53 2205.66,2883.44 2172.92,3959.68 c -32.73,1076.24 813.18,1975.24 1889.42,2007.97 1076.23,32.74 1975.22,-813.2 2007.95,-1889.41" /><path
         id="path30"
         style="fill:#b19f8a;fill-opacity:1;fill-rule:nonzero;stroke:none"
         d="m 6220.66,4082.82 c 35.28,-1159.3 -875.89,-2127.66 -2035.18,-2162.93 -1159.3,-35.28 -2127.67,875.92 -2162.94,2035.22 -35.25,1159.29 875.95,2127.65 2035.23,2162.92 1159.28,35.25 2127.66,-875.94 2162.89,-2035.21" /><path
         id="path32"
         style="fill:#3f3b34;fill-opacity:1;fill-rule:nonzero;stroke:none"
         d="m 5291.05,1637.53 c 0,0 357.29,-127.42 540.63,-598.15 l 91.17,33.48 c 0,0 -258.71,422.37 -163.83,840.11 -135.37,-96.3 -467.97,-275.44 -467.97,-275.44" /><path
         id="path34"
         style="fill:#3f3b34;fill-opacity:1;fill-rule:nonzero;stroke:none"
         d="m 3066.67,1569.86 c 0,0 -348.87,-148.88 -503.28,-629.899 l -93.01,27.91 c 0,0 232.53,437.279 112.49,848.519 140.94,-87.91 483.8,-246.53 483.8,-246.53" /><path
         id="path36"
         style="fill:#5d5747;fill-opacity:1;fill-rule:nonzero;stroke:none"
         d="m 3924.41,6771.55 945.57,28.76 c 0,0 -68.75,650.6 -867.57,626.32 l -32.61,-1.02 c -798.82,-24.28 -827.9,-677.87 -827.9,-677.87 l 945.55,28.77" /><path
         id="path38"
         style="fill:#3f3b34;fill-opacity:1;fill-rule:nonzero;stroke:none"
         d="m 3141.9,6747.74 c 0,0 405.12,-68.56 833.46,-72.32 428.32,-3.75 894.62,124.89 894.62,124.89 0,0 -1227.92,66.49 -1728.08,-52.57" /><path
         id="path40"
         style="fill:#80c1ca;fill-opacity:1;fill-rule:nonzero;stroke:none"
         d="m 4029.92,7365.59 c 0,0 302.74,-15.98 367.89,-501 l 361.24,-5.8 c 0,0 -116.5,517.03 -729.13,506.8" /><path
         id="path42"
         style="fill:#3f3b34;fill-opacity:1;fill-rule:nonzero;stroke:none"
         d="m 3954.41,7363.29 c 0,0 -301.23,-34.33 -336.75,-522.42 l -360.18,-27.74 c 0,0 84.82,523.16 696.93,550.16" /><path
         id="path44"
         style="fill:#7f806c;fill-opacity:1;fill-rule:nonzero;stroke:none"
         d="m 3928.32,7324.72 c 0,0 -136.13,-79.72 -157.06,-426.7 85.12,-3.71 97.72,-3.32 97.72,-3.32 l 374.33,11.38 c 0,0 -18.9,415.06 -314.99,418.64" /><path
         id="path46"
         style="fill:#5d5747;fill-opacity:1;fill-rule:nonzero;stroke:none"
         d="m 4094.61,7447.33 c 0.9,-30.14 -50.93,-56.13 -115.79,-58.11 -64.85,-1.97 -118.17,20.84 -119.1,50.95 -0.92,30.13 50.92,56.12 115.8,58.11 64.86,1.97 118.18,-20.84 119.09,-50.95" /><g
         id="g48"><g
           clip-path="url(#clipPath54)"
           id="g50"><path
             id="path56"
             style="fill:#d8cfc5;fill-opacity:1;fill-rule:nonzero;stroke:none"
             d="m 5941.99,5506.6 c -69.2,84.52 -144.16,164.16 -224.24,238.22 177.58,-115.29 277.45,-201.89 277.45,-201.89 v 0 l -53.21,-36.33 M 2007.92,5048.89 c 276.38,672.32 791.04,1036.54 791.04,1036.54 245.74,107.62 486.69,173.03 719.55,206.19 -667.29,-176.49 -1215.24,-637.9 -1510.59,-1242.73" /><path
             id="path58"
             style="fill:#efeee5;fill-opacity:1;fill-rule:nonzero;stroke:none"
             d="m 2161.31,2923.96 v 0 c -440.4,880.07 -370.27,1597.34 -153.39,2124.93 295.35,604.83 843.3,1066.24 1510.59,1242.73 130.89,18.63 259.28,27.09 384.23,27.09 797.8,0 1461.01,-344.06 1815.01,-573.89 80.08,-74.06 155.04,-153.7 224.24,-238.22 l -207.93,-142.04 c -386.25,462.2 -966.66,754.47 -1611.28,754.47 -21.58,0 -43.28,-0.33 -65.01,-1 C 2898.49,6082.76 1987.29,5114.4 2022.54,3955.11 c 10.49,-344.37 103.24,-666.79 258.93,-949.07 l -120.16,-82.08" /></g></g><path
         id="path60"
         style="fill:#d8cfc5;fill-opacity:1;fill-rule:nonzero;stroke:none"
         d="m 2281.47,3006.04 c -155.69,282.28 -248.44,604.7 -258.93,949.07 -35.25,1159.29 875.95,2127.65 2035.23,2162.92 21.73,0.67 43.43,1 65.01,1 644.62,0 1225.03,-292.27 1611.28,-754.47 l -979.5,-669.13 c -82.16,31.25 -165.48,53.3 -224.4,66.91 -54.32,21.23 -139.52,25.56 -195.84,25.7 18.13,31.15 30.28,67.07 34.64,105.97 0.65,-0.08 1.32,-0.11 1.99,-0.11 32.73,0 78.21,82.19 52.19,125.86 -8.55,14.39 -17.27,19.99 -25.67,19.99 -8.99,0 -17.61,-6.4 -25.28,-15.32 -1.22,29.42 -6.47,143.72 -15.7,174.43 -18.3,39.45 -80.15,52.98 -80.15,52.98 0,0 21.78,12.99 24.72,45.97 -71.52,61.16 -176.49,89.21 -274.16,89.53 h -3.4 c -113.51,-0.37 -216.46,-38.24 -244.5,-105.1 -36,-85.91 25.18,-151.7 90.11,-192.09 -8.48,-21.74 -14.42,-48.84 -4.53,-71.25 12.61,-28.52 54.59,-78.7 84.01,-112.02 5.23,-15.58 9.46,-30.99 12.73,-46.73 l -14.07,-1.04 c 0,0 6.77,-12.54 18.53,-25.21 1.46,-10.96 2.64,-22.19 3.21,-34.13 2.08,-44.63 37.96,-83.44 82.56,-107.25 -16.64,-15.45 -37.31,-36.27 -54.96,-58.73 -4.67,-5.82 -98.68,-121.31 -280.32,-210.39 -70.81,-34.72 -158.25,-45.5 -239.46,-45.5 -132.59,0 -248.56,28.7 -248.56,28.7 l -2.01,-17.87 -7.67,1.83 c 0,0 -20.54,61.21 -34.81,71.44 -14.22,10.22 -40.06,44.24 -40.06,44.24 0,0 -13.35,-22.14 0,-43.89 l 13.32,-21.74 c 0,0 -76.75,39.2 -93.55,39.2 -1.99,0 -3.13,-0.55 -3.23,-1.76 -0.01,-0.11 -0.02,-0.2 -0.02,-0.3 v -1.21 c 0.56,-12.66 17.22,-42.81 17.22,-42.81 0,0 30.85,-69.86 52.66,-79.43 5.73,-1.82 12.83,-2.53 20.31,-2.53 23.21,0 49.96,6.69 49.96,6.69 l 21.59,-8.19 -2.42,-21.5 c 127.41,-43.98 435.1,-57.54 435.1,-57.54 117.1,10.58 260.85,92.52 364.95,162.77 22.47,-60.06 38.82,-132.27 50.79,-205.94 L 2281.47,3006.04" /><path
         id="path62"
         style="fill:#3f3b34;fill-opacity:1;fill-rule:nonzero;stroke:none"
         d="m 3888.06,6156.2 47.89,-337.23 130.45,41.6 -12.6,413.56 -168.59,-23.94 2.85,-93.99 v 0" /><path
         id="path64"
         style="fill:#3f3b34;fill-opacity:1;fill-rule:nonzero;stroke:none"
         d="m 4103.84,2155.16 47.88,-337.24 130.44,41.62 -12.58,413.55 -168.6,-23.95 2.86,-93.98 v 0" /><path
         id="path66"
         style="fill:#3f3b34;fill-opacity:1;fill-rule:nonzero;stroke:none"
         d="m 1973.25,3849.54 337.19,47.89 -41.57,130.44 -413.55,-12.56 23.92,-168.62 94.01,2.85 v 0" /><path
         id="path68"
         style="fill:#3f3b34;fill-opacity:1;fill-rule:nonzero;stroke:none"
         d="m 5974.26,4065.34 337.22,47.89 -41.58,130.42 -413.57,-12.58 23.96,-168.6 93.97,2.87 v 0" /><path
         id="path70"
         style="fill:#3f3b34;fill-opacity:1;fill-rule:nonzero;stroke:none"
         d="m 2729.99,2414.43 204.58,272.29 -121.65,62.84 -283.53,-301.34 136.14,-102.3 64.46,68.51 v 0" /><path
         id="path72"
         style="fill:#3f3b34;fill-opacity:1;fill-rule:nonzero;stroke:none"
         d="m 5406.56,5396.17 204.59,272.28 -121.64,62.81 -283.53,-301.28 136.15,-102.32 64.43,68.51 v 0" /><path
         id="path74"
         style="fill:#3f3b34;fill-opacity:1;fill-rule:nonzero;stroke:none"
         d="m 5715,2691.47 -272.29,204.6 -62.85,-121.66 301.35,-283.52 102.27,136.15 -68.48,64.43 v 0" /><path
         id="path76"
         style="fill:#3f3b34;fill-opacity:1;fill-rule:nonzero;stroke:none"
         d="m 2733.29,5368.07 -272.31,204.59 -62.84,-121.66 301.34,-283.53 102.27,136.16 -68.46,64.44 v 0" /><g
         id="g78"><g
           clip-path="url(#clipPath84)"
           id="g80"><path
             id="path86"
             style="fill:#97826c;fill-opacity:1;fill-rule:nonzero;stroke:none"
             d="m 3370.78,2672.67 v 0 c -31.62,12.56 -114.6,89.37 -114.6,89.37 l 77.75,-16.21 c 138.56,340.24 762.55,1097.32 762.55,1097.32 l -1.46,73.67 5.53,0.25 c -3.81,81.33 -11.8,197.89 -30.17,310.99 l 684.18,467.37 c 85.34,-32.46 169.44,-74.86 223.66,-128.05 0,0 188.98,-243.24 238,-368.79 l -15.18,-10.24 9.8,-15.98 c 0,0 24.04,2.07 48.91,2.07 21.93,0 44.53,-1.61 51.77,-7.7 15.45,-12.98 36.41,-56.97 37.15,-65.5 0.08,-0.94 -0.31,-1.36 -1.07,-1.36 -6.04,0 -35.49,26.84 -35.49,26.84 l -75.35,10.68 c 0,0 44.86,-21.92 43.22,-36.34 -1.56,-0.15 -3.22,-0.21 -4.96,-0.21 -32.94,0 -94.35,23.1 -94.35,23.1 l -12.35,42.34 -17.05,-11.46 c 0,0 -138.54,278.11 -328.88,360.91 -78.33,34.04 -149.92,53.03 -207.39,63.74 7.63,-53.72 13.26,-117.58 16.12,-187.11 17.48,-6.44 31.74,-10.74 40.05,-11.29 4.29,-7 38.48,-103.69 38.48,-103.69 l -76.83,-36.23 c -1.76,-99.01 -9.25,-202.41 -24.2,-300.27 l 0.33,0.01 c -1.35,-6.43 -6.42,-44.08 -9.49,-67.33 11.06,-48.5 90.16,-393.59 107.92,-434.62 318.9,19.89 418.66,301.45 433.77,302.74 24.06,-13.18 84.95,-99.53 84.95,-99.53 l -63.89,32.66 2.12,-24.65 c -46.22,-171.92 -513.48,-485.21 -513.48,-485.21 -100.83,115.62 -239.64,347.21 -326.09,527.19 -314.37,-174.31 -919.69,-994.65 -953.98,-1019.48" /></g></g><path
         id="path88"
         style="fill:#b8aa9a;fill-opacity:1;fill-rule:nonzero;stroke:none"
         d="m 4070.38,4228.06 c -11.97,73.67 -28.32,145.88 -50.79,205.94 -104.1,-70.25 -247.85,-152.19 -364.95,-162.77 0,0 -307.69,13.56 -435.1,57.54 l 2.42,21.5 -21.59,8.19 c 0,0 -26.75,-6.69 -49.96,-6.69 -7.48,0 -14.58,0.71 -20.31,2.53 -21.81,9.57 -52.66,79.43 -52.66,79.43 0,0 -16.66,30.15 -17.22,42.81 v 1.21 c 0,0.1 0.01,0.19 0.02,0.3 0.1,1.21 1.24,1.76 3.23,1.76 16.8,0 93.55,-39.2 93.55,-39.2 l -13.32,21.74 c -13.35,21.75 0,43.89 0,43.89 0,0 25.84,-34.02 40.06,-44.24 14.27,-10.23 34.81,-71.44 34.81,-71.44 l 7.67,-1.83 2.01,17.87 c 0,0 115.97,-28.7 248.56,-28.7 81.21,0 168.65,10.78 239.46,45.5 181.64,89.08 275.65,204.57 280.32,210.39 17.65,22.46 38.32,43.28 54.96,58.73 -44.6,23.81 -80.48,62.62 -82.56,107.25 -0.57,11.94 -1.75,23.17 -3.21,34.13 -11.76,12.67 -18.53,25.21 -18.53,25.21 l 14.07,1.04 c -3.27,15.74 -7.5,31.15 -12.73,46.73 -29.42,33.32 -71.4,83.5 -84.01,112.02 -9.89,22.41 -3.95,49.51 4.53,71.25 -64.93,40.39 -126.11,106.18 -90.11,192.09 28.04,66.86 130.99,104.73 244.5,105.1 h 3.4 c 97.67,-0.32 202.64,-28.37 274.16,-89.53 -2.94,-32.98 -24.72,-45.97 -24.72,-45.97 0,0 61.85,-13.53 80.15,-52.98 9.23,-30.71 14.48,-145.01 15.7,-174.43 7.67,8.92 16.29,15.32 25.28,15.32 8.4,0 17.12,-5.6 25.67,-19.99 26.02,-43.67 -19.46,-125.86 -52.19,-125.86 -0.67,0 -1.34,0.03 -1.99,0.11 -4.36,-38.9 -16.51,-74.82 -34.64,-105.97 56.32,-0.14 141.52,-4.47 195.84,-25.7 58.92,-13.61 142.24,-35.66 224.4,-66.91 l -684.18,-467.37" /><path
         id="path90"
         style="fill:#e5ae81;fill-opacity:1;fill-rule:nonzero;stroke:none"
         d="m 3163.66,4480.64 -40.33,12.1 c 0,0 -17.1,62.25 -30.75,73.25 -13.65,11.01 -37.57,46.42 -37.57,46.42 0,0 -14.57,-21.36 -2.47,-43.83 l 12.09,-22.47 c 0,0 -92.95,54.26 -94.49,42.79 -1.55,-11.46 14.68,-45.19 14.68,-45.19 0,0 26.9,-71.49 48.16,-82.24 23.09,-8.83 70.37,0.22 70.37,0.22 l 52.06,-23.14 8.25,42.09 v 0" /><path
         id="path92"
         style="fill:#e5ae81;fill-opacity:1;fill-rule:nonzero;stroke:none"
         d="m 5054.39,4173.85 13.13,-56.64 c 0,0 66.53,-29.37 97.9,-28.44 2.41,14.37 -41.13,38.71 -41.13,38.71 l 74.64,-14.88 c 0,0 35.33,-35.99 35.07,-27.43 -0.27,8.54 -18.76,53.63 -33.45,67.46 -14.68,13.82 -100.19,11.22 -100.19,11.22 l -18.16,33.68 -27.81,-23.68 v 0" /><path
         id="path94"
         style="fill:#283543;fill-opacity:1;fill-rule:nonzero;stroke:none"
         d="m 5086.04,3633.6 c 0,0 -56,89.64 -79.28,104.13 -15.18,-0.44 -130.46,-276.02 -450,-278.12 -16.56,45.18 -84.53,445.88 -84.53,445.88 l -223.09,-2.59 -1.23,17.21 -278.53,-22.87 c 0,0 -665.22,-721.14 -822.52,-1053.1 l -76.72,20.48 c 0,0 78.56,-81.3 109.44,-95.59 35.61,22.89 685.72,808.22 1009.33,964.74 76.24,-184.54 201.95,-423.49 296.19,-544.54 0,0 483.99,286.74 539.71,455.82 l -0.72,24.72 61.95,-36.17 v 0" /><path
         id="path96"
         style="fill:#f2f3cd;fill-opacity:1;fill-rule:nonzero;stroke:none"
         d="m 4202.79,4829.32 c 0,0 234.78,0.46 288.51,-64.44 53.73,-64.9 66.64,-516.67 -19.07,-859.39 0,0 -154.96,-13.71 -495.58,7.14 3.14,140.54 6.58,541.06 -101.33,685.66 -24.2,65.8 127.79,173.93 127.79,173.93 l 199.68,57.1 v 0" /><path
         id="path98"
         style="fill:#b67a56;fill-opacity:1;fill-rule:nonzero;stroke:none"
         d="m 4034.84,4727.99 c 0,0 38.31,-50.33 68.31,-69.04 29.24,5.79 104.66,106.18 113.49,138.32 -33.84,-15.74 -181.8,-69.28 -181.8,-69.28" /><path
         id="path100"
         style="fill:#a38037;fill-opacity:1;fill-rule:nonzero;stroke:none"
         d="m 4015.01,4734.74 c 0,0 10.73,-110.01 21.47,-141.56 14.34,12.69 60.14,38.61 60.14,38.61 0,0 85,-53.82 92.41,-56.03 6.83,17.36 57.23,215.05 56.63,234.65 1.4,-46.55 -50.97,-259.01 -50.97,-259.01 l -95.05,60.86 -72.13,-46.33 c 0,0 -22.72,102.29 -12.5,168.81" /><path
         id="path102"
         style="fill:#d7d7a7;fill-opacity:1;fill-rule:nonzero;stroke:none"
         d="m 4061.59,4594.56 2.58,-6.88 82.06,-216.74 88.2,83.6 204.66,-199.75 80.1,26.95 -33.27,126.51 -199.55,111.62 -109.62,-103.87 -96.47,188.31" /><path
         id="path104"
         style="fill:#a38037;fill-opacity:1;fill-rule:nonzero;stroke:none"
         d="m 4061.59,4594.56 36.31,-44.88 48.32,43.77 -50.53,27.88 -34.1,-26.77 v 0" /><path
         id="path106"
         style="fill:#a38037;fill-opacity:1;fill-rule:nonzero;stroke:none"
         d="m 4108.33,4568.39 c 0,0 53.81,-75.59 99.15,-114.67 29.04,11.92 85.48,90.87 85.48,90.87 0,0 232.19,-136.38 280.18,-142.27 3.91,-7.25 32.65,-105.67 32.65,-105.67 l -98.12,-39.76 -254.95,200.65 -79.53,-85.78 -111.6,222.8 46.74,-26.17 v 0" /><path
         id="path108"
         style="fill:#7e612e;fill-opacity:1;fill-rule:nonzero;stroke:none"
         d="m 4459.49,4451.97 c -78.76,41.08 -166.53,92.62 -166.53,92.62 l -40.25,-87.05 184.83,-145.47 21.95,139.9 v 0" /><path
         id="path110"
         style="fill:#242c34;fill-opacity:1;fill-rule:nonzero;stroke:none"
         d="m 3972.07,3970.86 514.43,-4.56 c -2.5,-9.26 -16.71,-85.12 -16.71,-85.12 l -500.41,16.06 2.69,73.62 v 0" /><path
         id="path112"
         style="fill:#283543;fill-opacity:1;fill-rule:nonzero;stroke:none"
         d="m 4023.62,3887.84 -1.35,84.57 38.08,-2.51 -12.02,-88.64 -24.71,6.58 v 0" /><path
         id="path114"
         style="fill:#283543;fill-opacity:1;fill-rule:nonzero;stroke:none"
         d="m 4351.06,3884.34 -1.35,84.55 38.08,-2.54 -12.01,-88.63 -24.72,6.62 v 0" /><path
         id="path116"
         style="fill:#7e474a;fill-opacity:1;fill-rule:nonzero;stroke:none"
         d="m 3834.15,5192.74 c 0,0 -48.31,-62.24 -30.82,-108.63 17.52,-46.42 106.11,-151.64 106.11,-151.64 0,0 21.4,226.6 -75.29,260.27" /><path
         id="path118"
         style="fill:#e5ae81;fill-opacity:1;fill-rule:nonzero;stroke:none"
         d="m 4296.11,4955.93 c -17.84,-162.48 -151.31,-238.88 -227.42,-238.21 -76.08,0.66 -173.98,65.67 -173.3,141.77 0.66,76.08 -18.3,128.46 -51.85,215.31 -33.54,86.84 29.8,165.35 29.8,165.35 0,0 117.65,142.2 297.62,77.94 179.99,-64.23 125.15,-362.16 125.15,-362.16" /><path
         id="path120"
         style="fill:#da896f;fill-opacity:1;fill-rule:nonzero;stroke:none"
         d="m 4277.17,5008.31 c 0,0 48.7,112.97 83.96,45.51 35.19,-67.43 -94.4,-212.53 -83.96,-45.51" /><path
         id="path122"
         style="fill:#da896f;fill-opacity:1;fill-rule:nonzero;stroke:none"
         d="m 4170.8,5187.3 c 0,0 56.7,-112.91 70.13,-168.71 13.43,-55.83 22.32,-180.25 -119.76,-273.5 -59.83,-14.39 -143.26,-0.71 -143.26,-0.71 0,0 58.27,-49.27 141.02,-25.14 82.78,24.15 168.07,107.95 183,221.23 5.84,98.42 -25.54,263.8 -25.54,263.8 L 4170.8,5187.3 v 0" /><path
         id="path124"
         style="fill:#7e474a;fill-opacity:1;fill-rule:nonzero;stroke:none"
         d="m 4037.28,5216.32 c 0,0 -75.77,-132.12 -145.66,-104.66 -69.88,27.48 -218.29,118.32 -159.03,240.13 59.28,121.83 374.14,128.01 522.11,-13.54 -4.77,-32.79 -27.24,-44.52 -27.24,-44.52 0,0 61.01,-16.96 77.06,-57.38 8.64,-35.88 5.86,-182.07 5.86,-182.07 0,0 -30.1,-32.57 -39.65,-98.14 l -26.78,6.22 0.09,183.51 -206.76,70.45 v 0" /><path
         id="path126"
         style="fill:#965c52;fill-opacity:1;fill-rule:nonzero;stroke:none"
         d="m 3824.54,5399.23 c 0,0 -101.76,-32.92 -79.55,-107.72 42.16,-70 399.11,24.33 394.27,44.27 -4.77,19.94 -191.56,42.49 -176.58,50.31 14.98,7.82 165.1,-2.46 224.45,-38.78 -18.66,25.02 -144.28,108.68 -362.59,51.92" /><path
         id="path128"
         style="fill:#965c52;fill-opacity:1;fill-rule:nonzero;stroke:none"
         d="m 4214.43,5255.8 c 0,0 47.96,24.2 63.91,-28.91 12.21,-50.84 -10.97,-59.59 -31.09,-54.94 -20.09,4.65 -147.28,46.79 -104.7,53.89 42.57,7.08 71.88,29.96 71.88,29.96" /><path
         id="path130"
         style="fill:#7e474a;fill-opacity:1;fill-rule:nonzero;stroke:none"
         d="m 4019.13,5040.58 c 0,0 73.68,35.02 113.77,34.91 -9.13,15.43 -69.24,15.62 -86.81,9.05 -17.57,-6.55 -26.96,-43.96 -26.96,-43.96" /><path
         id="path132"
         style="fill:#7e474a;fill-opacity:1;fill-rule:nonzero;stroke:none"
         d="m 3946.29,5026.13 c 0,0 -59.51,-10.78 -83.59,-28.2 -1.21,13.24 34.94,39.37 48.34,43 13.41,3.66 35.25,-14.8 35.25,-14.8" /><path
         id="path134"
         style="fill:#7e474a;fill-opacity:1;fill-rule:nonzero;stroke:none"
         d="m 4082.55,5010.28 c 2.66,-10.99 -0.64,-21.19 -7.34,-22.81 -6.73,-1.62 -14.31,5.98 -16.95,16.98 -2.63,10.96 0.65,21.19 7.37,22.8 6.72,1.62 14.3,-5.99 16.92,-16.97" /><path
         id="path136"
         style="fill:#7e474a;fill-opacity:1;fill-rule:nonzero;stroke:none"
         d="m 3938.91,4975.71 c 2.64,-10.99 -0.67,-21.2 -7.37,-22.81 -6.73,-1.64 -14.3,5.96 -16.96,16.96 -2.64,10.98 0.65,21.19 7.38,22.8 6.7,1.64 14.29,-5.97 16.95,-16.95" /><path
         id="path138"
         style="fill:#da896f;fill-opacity:1;fill-rule:nonzero;stroke:none"
         d="M 3982.67,4922.06 3877,4919.93 c 0,0 37.76,-81.55 99.14,-46.07 20.86,10.2 6.53,48.2 6.53,48.2" /><path
         id="path140"
         style="fill:#f2f3cd;fill-opacity:1;fill-rule:nonzero;stroke:none"
         d="m 3975.05,4843.35 c 0,0 18.29,-33.18 48.41,-20.75 30.09,12.42 50.77,44.18 50.77,44.18 0,0 -73.97,-17.07 -99.18,-23.43" /><path
         id="path142"
         style="fill:#da896f;fill-opacity:1;fill-rule:nonzero;stroke:none"
         d="m 3999.66,4785.77 c 0,0 21.93,5.28 37.9,-6.21 -1.98,4.55 -20.04,23.32 -37.9,6.21" /><path
         id="path144"
         style="fill:#f2f3cd;fill-opacity:1;fill-rule:nonzero;stroke:none"
         d="m 4372.96,4812.29 c 0,0 375.46,-85.59 517.16,-241.08 0,0 175.11,-253.39 217.05,-381.47 l -67.25,-40.09 c 0,0 -122.82,285.41 -308.28,378.69 -185.46,93.28 -337.73,96.26 -337.73,96.26 l -20.95,187.69 v 0" /><path
         id="path146"
         style="fill:#f2f3cd;fill-opacity:1;fill-rule:nonzero;stroke:none"
         d="m 4070.74,4587.12 c 0,0 -308.43,-230.61 -518.65,-237.85 0,0 -306.48,30.71 -431.24,81.7 l 13.02,77.24 c 0,0 297.01,-91.3 488.23,-10.42 191.19,80.88 292.07,194.97 292.07,194.97 l 156.57,-105.64 v 0" /></g></g></svg>