<?xml version="1.0" encoding="UTF-8" standalone="no"?>
<svg
   xmlns:dc="http://purl.org/dc/elements/1.1/"
   xmlns:cc="http://creativecommons.org/ns#"
   xmlns:rdf="http://www.w3.org/1999/02/22-rdf-syntax-ns#"
   xmlns:svg="http://www.w3.org/2000/svg"
   xmlns="http://www.w3.org/2000/svg"
   viewBox="0 0 855.96002 487.42667"
   height="487.42667"
   width="855.96002"
   xml:space="preserve"
   id="svg2"
   version="1.1"><metadata
     id="metadata8"><rdf:RDF><cc:Work
         rdf:about=""><dc:format>image/svg+xml</dc:format><dc:type
           rdf:resource="http://purl.org/dc/dcmitype/StillImage" /></cc:Work></rdf:RDF></metadata><defs
     id="defs6"><clipPath
       id="clipPath20"
       clipPathUnits="userSpaceOnUse"><path
         id="path18"
         d="M 2764,0 H 6419.73 V 3655.74 H 2764 Z" /></clipPath><clipPath
       id="clipPath60"
       clipPathUnits="userSpaceOnUse"><path
         id="path58"
         d="m 3662.89,1330.21 h 1720.5 v 1404.68 h -1720.5 z" /></clipPath><clipPath
       id="clipPath74"
       clipPathUnits="userSpaceOnUse"><path
         id="path72"
         d="M 2764,0 H 6419.73 V 3655.74 H 2764 Z" /></clipPath><clipPath
       id="clipPath98"
       clipPathUnits="userSpaceOnUse"><path
         id="path96"
         d="m 4168.97,1226.23 h 946.922 V 2349.5 H 4168.97 Z" /></clipPath><clipPath
       id="clipPath110"
       clipPathUnits="userSpaceOnUse"><path
         id="path108"
         d="M 2764,0 H 6419.73 V 3655.74 H 2764 Z" /></clipPath></defs><g
     transform="matrix(1.3333333,0,0,-1.3333333,0,487.42667)"
     id="g10"><g
       transform="scale(0.1)"
       id="g12"><g
         id="g14"><g
           clip-path="url(#clipPath20)"
           id="g16"><path
             id="path22"
             style="fill:#72b5b3;fill-opacity:1;fill-rule:nonzero;stroke:none"
             d="m 3518.02,551.945 c 0,0 288.46,195.606 2325.52,24.012 0,0 -777.74,-233.844 -2325.52,-24.012" /><path
             id="path24"
             style="fill:#3f3b34;fill-opacity:1;fill-rule:nonzero;stroke:none"
             d="M 5720.41,1817.13 C 5739.1,1202.84 5256.26,689.727 4641.98,671.035 4027.7,652.355 3514.57,1135.18 3495.9,1749.47 c -18.69,614.28 464.14,1127.4 1078.41,1146.09 614.3,18.68 1127.41,-464.15 1146.1,-1078.43" /><path
             id="path26"
             style="fill:#80c1ca;fill-opacity:1;fill-rule:nonzero;stroke:none"
             d="m 4521.29,2847.23 c 618.58,18.81 1135.29,-467.39 1154.11,-1085.97 1.21,-40.06 0.22,-79.68 -2.69,-118.79 7.42,56.63 10.59,114.54 8.81,173.48 -18.03,592.8 -513.21,1058.75 -1106.02,1040.71 -58.93,-1.79 -116.54,-8.48 -172.61,-19.33 38.86,5.28 78.34,8.69 118.4,9.9" /><path
             id="path28"
             style="fill:#fbf4e0;fill-opacity:1;fill-rule:nonzero;stroke:none"
             d="m 3556.32,1803.06 c 18.82,-618.58 535.52,-1104.794 1154.11,-1085.974 40.07,1.215 79.55,4.613 118.4,9.902 -56.06,-10.847 -113.67,-17.543 -172.6,-19.34 -592.83,-18.039 -1088,447.922 -1106.03,1040.732 -1.79,58.93 1.39,116.84 8.82,173.47 -2.92,-39.1 -3.91,-78.72 -2.7,-118.79" /><path
             id="path30"
             style="fill:#b19f8a;fill-opacity:1;fill-rule:nonzero;stroke:none"
             d="M 5627.08,1814.29 C 5644.18,1251.55 5201.87,781.484 4639.14,764.379 4076.41,747.262 3606.34,1189.56 3589.23,1752.3 c -17.12,562.74 425.19,1032.8 987.93,1049.92 562.73,17.12 1032.8,-425.19 1049.92,-987.93" /><path
             id="path32"
             style="fill:#dfdccb;fill-opacity:1;fill-rule:nonzero;stroke:none"
             d="m 5580.41,1812.87 c 16.33,-536.96 -405.74,-985.495 -942.69,-1001.835 -536.95,-16.328 -985.49,405.725 -1001.83,942.685 -16.33,536.97 405.73,985.51 942.69,1001.84 536.96,16.33 985.49,-405.73 1001.83,-942.69" /><path
             id="path34"
             style="fill:#fbf4e0;fill-opacity:1;fill-rule:nonzero;stroke:none"
             d="M 5414.47,1807.82 C 5428.01,1362.5 5078,990.516 4632.67,976.969 c -445.32,-13.543 -817.3,336.481 -830.85,781.801 -13.54,445.33 336.48,817.31 781.81,830.86 445.32,13.54 817.3,-336.49 830.84,-781.81" /><path
             id="path36"
             style="fill:#b19f8a;fill-opacity:1;fill-rule:nonzero;stroke:none"
             d="m 5476.69,1809.72 c 14.6,-479.69 -362.43,-880.38 -842.12,-894.974 -479.69,-14.594 -880.38,362.444 -894.97,842.134 -14.58,479.69 362.45,880.37 842.13,894.97 479.69,14.58 880.38,-362.44 894.96,-842.13" /><path
             id="path38"
             style="fill:#3f3b34;fill-opacity:1;fill-rule:nonzero;stroke:none"
             d="m 5092.04,797.914 c 0,0 147.84,-52.726 223.7,-247.504 l 37.72,13.852 c 0,0 -107.04,174.769 -67.78,347.625 -56.02,-39.848 -193.64,-113.973 -193.64,-113.973" /><path
             id="path40"
             style="fill:#3f3b34;fill-opacity:1;fill-rule:nonzero;stroke:none"
             d="m 4171.64,769.91 c 0,0 -144.36,-61.601 -208.25,-260.64 l -38.49,11.55 c 0,0 96.22,180.938 46.55,351.098 58.32,-36.375 200.19,-102.008 200.19,-102.008" /><path
             id="path42"
             style="fill:#5d5747;fill-opacity:1;fill-rule:nonzero;stroke:none"
             d="m 4526.55,2922.26 391.26,11.9 c 0,0 -28.45,269.21 -358.99,259.16 l -13.48,-0.42 c -330.54,-10.04 -342.57,-280.49 -342.57,-280.49 l 391.24,11.9" /><path
             id="path44"
             style="fill:#3f3b34;fill-opacity:1;fill-rule:nonzero;stroke:none"
             d="m 4202.77,2912.41 c 0,0 167.62,-28.37 344.86,-29.92 177.23,-1.55 370.18,51.67 370.18,51.67 0,0 -508.09,27.52 -715.04,-21.75" /><path
             id="path46"
             style="fill:#80c1ca;fill-opacity:1;fill-rule:nonzero;stroke:none"
             d="m 4570.21,3168.07 c 0,0 125.27,-6.62 152.22,-207.31 l 149.48,-2.4 c 0,0 -48.21,213.94 -301.7,209.71" /><path
             id="path48"
             style="fill:#3f3b34;fill-opacity:1;fill-rule:nonzero;stroke:none"
             d="m 4538.97,3167.11 c 0,0 -124.65,-14.2 -139.34,-216.16 l -149.04,-11.49 c 0,0 35.1,216.48 288.38,227.65" /><path
             id="path50"
             style="fill:#7f806c;fill-opacity:1;fill-rule:nonzero;stroke:none"
             d="m 4528.17,3151.16 c 0,0 -56.33,-32.99 -64.99,-176.57 35.22,-1.53 40.44,-1.37 40.44,-1.37 l 154.88,4.71 c 0,0 -7.82,171.74 -130.33,173.23" /><path
             id="path52"
             style="fill:#5d5747;fill-opacity:1;fill-rule:nonzero;stroke:none"
             d="m 4596.98,3201.88 c 0.37,-12.46 -21.08,-23.22 -47.91,-24.04 -26.84,-0.81 -48.9,8.62 -49.29,21.09 -0.37,12.46 21.08,23.22 47.92,24.03 26.84,0.82 48.9,-8.62 49.28,-21.08" /></g></g><g
         id="g54"><g
           clip-path="url(#clipPath60)"
           id="g56"><path
             id="path62"
             style="fill:#d8cfc5;fill-opacity:1;fill-rule:nonzero;stroke:none"
             d="m 3733.55,2209.46 c 114.36,278.19 327.31,428.9 327.31,428.9 101.68,44.53 201.39,71.6 297.74,85.32 -276.12,-73.03 -502.84,-263.95 -625.05,-514.22 m 1627.83,189.39 c -28.63,34.97 -59.65,67.93 -92.78,98.57 73.47,-47.71 114.79,-83.53 114.79,-83.53 v 0 l -22.01,-15.04" /><path
             id="path64"
             style="fill:#efeee5;fill-opacity:1;fill-rule:nonzero;stroke:none"
             d="m 3797.02,1330.21 v 0 c -182.23,364.15 -153.21,660.95 -63.47,879.25 122.21,250.27 348.93,441.19 625.05,514.22 54.16,7.7 107.28,11.21 158.99,11.21 330.11,0 604.53,-142.37 751.01,-237.47 33.13,-30.64 64.15,-63.6 92.78,-98.57 l -86.04,-58.77 c -159.81,191.25 -399.98,312.18 -666.71,312.18 -8.93,0 -17.91,-0.13 -26.9,-0.41 -479.68,-14.6 -856.71,-415.28 -842.13,-894.97 4.34,-142.5 42.71,-275.9 107.14,-392.71 l -49.72,-33.96" /><path
             id="path66"
             style="fill:#d8cfc5;fill-opacity:1;fill-rule:nonzero;stroke:none"
             d="m 3846.74,1364.17 c -64.43,116.81 -102.8,250.21 -107.14,392.71 -14.58,479.69 362.45,880.37 842.13,894.97 8.99,0.28 17.97,0.41 26.9,0.41 266.73,0 506.9,-120.93 666.71,-312.18 l -405.29,-276.87 c -34,12.93 -68.47,22.05 -92.85,27.68 -22.48,8.79 -57.74,10.58 -81.04,10.64 7.5,12.89 12.53,27.75 14.33,43.85 0.28,-0.04 0.55,-0.05 0.83,-0.05 13.54,0 32.36,34.01 21.59,52.08 -3.53,5.95 -7.14,8.27 -10.62,8.27 -3.72,0 -7.29,-2.64 -10.46,-6.34 -0.5,12.18 -2.67,59.47 -6.49,72.18 -7.58,16.32 -33.17,21.92 -33.17,21.92 0,0 9.01,5.37 10.23,19.02 -29.6,25.31 -73.03,36.91 -113.44,37.04 h -1.41 c -46.97,-0.15 -89.57,-15.82 -101.16,-43.48 -14.9,-35.55 10.41,-62.77 37.28,-79.48 -3.51,-9 -5.97,-20.21 -1.88,-29.49 5.22,-11.8 22.59,-32.56 34.77,-46.35 2.16,-6.44 3.91,-12.82 5.27,-19.33 l -5.83,-0.44 c 0,0 2.8,-5.18 7.67,-10.43 0.6,-4.53 1.1,-9.18 1.33,-14.12 0.86,-18.46 15.71,-34.52 34.16,-44.38 -6.89,-6.39 -15.44,-15 -22.74,-24.3 -1.93,-2.4 -40.83,-50.2 -115.99,-87.05 -29.3,-14.37 -65.48,-18.83 -99.09,-18.83 -54.86,0 -102.85,11.88 -102.85,11.88 l -0.83,-7.4 -3.17,0.76 c 0,0 -8.5,25.33 -14.4,29.56 -5.89,4.23 -16.58,18.31 -16.58,18.31 0,0 -5.53,-9.17 0,-18.17 l 5.51,-8.99 c 0,0 -31.75,16.22 -38.71,16.22 -0.82,0 -1.29,-0.23 -1.33,-0.73 -0.01,-0.04 -0.01,-0.08 -0.01,-0.13 v -0.5 c 0.23,-5.23 7.12,-17.71 7.12,-17.71 0,0 12.77,-28.9 21.79,-32.86 2.37,-0.76 5.32,-1.05 8.41,-1.05 9.6,0 20.67,2.77 20.67,2.77 l 8.93,-3.39 -1,-8.9 c 52.72,-18.19 180.04,-23.81 180.04,-23.81 48.45,4.38 107.93,38.29 151.01,67.35 9.29,-24.85 16.06,-54.73 21.01,-85.21 l -740.21,-505.65" /></g></g><g
         id="g68"><g
           clip-path="url(#clipPath74)"
           id="g70"><path
             id="path76"
             style="fill:#3f3b34;fill-opacity:1;fill-rule:nonzero;stroke:none"
             d="m 4511.51,2667.64 19.81,-139.54 53.98,17.22 -5.21,171.12 -69.76,-9.9 1.18,-38.9" /><path
             id="path78"
             style="fill:#3f3b34;fill-opacity:1;fill-rule:nonzero;stroke:none"
             d="m 4600.8,1012.09 19.81,-139.535 53.97,17.218 -5.2,171.117 -69.77,-9.91 1.19,-38.89" /><path
             id="path80"
             style="fill:#3f3b34;fill-opacity:1;fill-rule:nonzero;stroke:none"
             d="m 3719.2,1713.2 139.53,19.81 -17.21,53.97 -171.12,-5.19 9.9,-69.77 38.9,1.18" /><path
             id="path82"
             style="fill:#3f3b34;fill-opacity:1;fill-rule:nonzero;stroke:none"
             d="m 5374.74,1802.49 139.53,19.81 -17.21,53.97 -171.12,-5.21 9.91,-69.76 38.89,1.19" /><path
             id="path84"
             style="fill:#3f3b34;fill-opacity:1;fill-rule:nonzero;stroke:none"
             d="m 4032.32,1119.38 84.66,112.67 -50.34,26 -117.32,-124.69 56.33,-42.33 26.67,28.35" /><path
             id="path86"
             style="fill:#3f3b34;fill-opacity:1;fill-rule:nonzero;stroke:none"
             d="m 5139.84,2353.16 84.65,112.66 -50.33,26 -117.32,-124.67 56.33,-42.34 26.67,28.35" /><path
             id="path88"
             style="fill:#3f3b34;fill-opacity:1;fill-rule:nonzero;stroke:none"
             d="m 5267.46,1234.01 -112.67,84.66 -26,-50.34 124.69,-117.31 42.31,56.33 -28.33,26.66" /><path
             id="path90"
             style="fill:#3f3b34;fill-opacity:1;fill-rule:nonzero;stroke:none"
             d="m 4033.69,2341.54 -112.68,84.65 -25.99,-50.34 124.68,-117.32 42.32,56.34 -28.33,26.67" /></g></g><g
         id="g92"><g
           clip-path="url(#clipPath98)"
           id="g94"><path
             id="path100"
             style="fill:#97826c;fill-opacity:1;fill-rule:nonzero;stroke:none"
             d="m 4297.47,1226.23 v 0 c -13.08,5.2 -47.42,36.98 -47.42,36.98 l 32.17,-6.7 c 57.33,140.78 315.53,454.04 315.53,454.04 l -0.6,30.48 2.29,0.11 c -1.58,33.65 -4.89,81.88 -12.49,128.68 l 283.1,193.39 c 35.31,-13.43 70.11,-30.98 92.54,-52.99 0,0 78.2,-100.65 98.48,-152.59 l -6.28,-4.24 4.06,-6.62 c 0,0 9.94,0.86 20.23,0.86 9.08,0 18.43,-0.67 21.43,-3.18 6.39,-5.37 15.07,-23.58 15.37,-27.1 0.03,-0.4 -0.13,-0.57 -0.44,-0.57 -2.5,0 -14.69,11.11 -14.69,11.11 l -31.18,4.41 c 0,0 18.57,-9.06 17.89,-15.03 -0.65,-0.06 -1.33,-0.09 -2.06,-0.09 -13.63,0 -39.04,9.56 -39.04,9.56 l -5.11,17.52 -7.05,-4.74 c 0,0 -57.32,115.08 -136.09,149.34 -32.41,14.08 -62.03,21.94 -85.81,26.37 3.16,-22.23 5.49,-48.66 6.67,-77.43 7.23,-2.66 13.14,-4.44 16.57,-4.67 1.78,-2.89 15.92,-42.9 15.92,-42.9 l -31.78,-14.99 c -0.73,-40.97 -3.83,-83.75 -10.02,-124.24 h 0.13 c -0.55,-2.66 -2.65,-18.24 -3.92,-27.86 4.58,-20.07 37.31,-162.86 44.66,-179.84 131.95,8.24 173.22,124.74 179.48,125.27 9.95,-5.46 35.15,-41.18 35.15,-41.18 l -26.43,13.51 0.87,-10.2 c -19.12,-71.14 -212.46,-200.77 -212.46,-200.77 -41.73,47.84 -99.16,143.67 -134.93,218.14 -130.08,-72.12 -380.55,-411.56 -394.74,-421.84" /><path
             id="path102"
             style="fill:#b8aa9a;fill-opacity:1;fill-rule:nonzero;stroke:none"
             d="m 4586.95,1869.82 c -4.95,30.48 -11.72,60.36 -21.01,85.21 -43.08,-29.06 -102.56,-62.97 -151.01,-67.35 0,0 -127.32,5.62 -180.04,23.81 l 1,8.9 -8.93,3.39 c 0,0 -11.07,-2.77 -20.67,-2.77 -3.09,0 -6.04,0.29 -8.41,1.05 -9.02,3.96 -21.79,32.86 -21.79,32.86 0,0 -6.89,12.48 -7.12,17.71 v 0.5 c 0,0.05 0,0.09 0.01,0.13 0.04,0.5 0.51,0.73 1.33,0.73 6.96,0 38.71,-16.22 38.71,-16.22 l -5.51,8.99 c -5.53,9 0,18.17 0,18.17 0,0 10.69,-14.08 16.58,-18.31 5.9,-4.23 14.4,-29.56 14.4,-29.56 l 3.17,-0.76 0.83,7.4 c 0,0 47.99,-11.88 102.85,-11.88 33.61,0 69.79,4.46 99.09,18.83 75.16,36.85 114.06,84.65 115.99,87.05 7.3,9.3 15.85,17.91 22.74,24.3 -18.45,9.86 -33.3,25.92 -34.16,44.38 -0.23,4.94 -0.73,9.59 -1.33,14.12 -4.87,5.25 -7.67,10.43 -7.67,10.43 l 5.83,0.44 c -1.36,6.51 -3.11,12.89 -5.27,19.33 -12.18,13.79 -29.55,34.55 -34.77,46.35 -4.09,9.28 -1.63,20.49 1.88,29.49 -26.87,16.71 -52.18,43.93 -37.28,79.48 11.59,27.66 54.19,43.33 101.16,43.48 h 1.41 c 40.41,-0.13 83.84,-11.73 113.44,-37.04 -1.22,-13.65 -10.23,-19.02 -10.23,-19.02 0,0 25.59,-5.6 33.17,-21.92 3.82,-12.71 5.99,-60 6.49,-72.18 3.17,3.7 6.74,6.34 10.46,6.34 3.48,0 7.09,-2.32 10.62,-8.27 10.77,-18.07 -8.05,-52.08 -21.59,-52.08 -0.28,0 -0.55,0.01 -0.83,0.05 -1.8,-16.1 -6.83,-30.96 -14.33,-43.85 23.3,-0.06 58.56,-1.85 81.04,-10.64 24.38,-5.63 58.85,-14.75 92.85,-27.68 l -283.1,-193.39" /></g></g><g
         id="g104"><g
           clip-path="url(#clipPath110)"
           id="g106"><path
             id="path112"
             style="fill:#e5ae81;fill-opacity:1;fill-rule:nonzero;stroke:none"
             d="m 4211.77,1974.33 -16.69,5.01 c 0,0 -7.08,25.76 -12.72,30.31 -5.65,4.55 -15.55,19.21 -15.55,19.21 0,0 -6.02,-8.84 -1.02,-18.14 l 5.01,-9.3 c 0,0 -38.46,22.45 -39.11,17.71 -0.64,-4.75 6.08,-18.7 6.08,-18.7 0,0 11.13,-29.58 19.93,-34.03 9.55,-3.65 29.12,0.09 29.12,0.09 l 21.54,-9.58 3.41,17.42" /><path
             id="path114"
             style="fill:#e5ae81;fill-opacity:1;fill-rule:nonzero;stroke:none"
             d="m 4994.11,1847.39 5.43,-23.44 c 0,0 27.53,-12.15 40.51,-11.76 1,5.94 -17.01,16.01 -17.01,16.01 l 30.88,-6.15 c 0,0 14.62,-14.9 14.51,-11.36 -0.11,3.54 -7.76,22.2 -13.84,27.92 -6.07,5.72 -41.46,4.64 -41.46,4.64 l -7.51,13.94 -11.51,-9.8" /><path
             id="path116"
             style="fill:#283543;fill-opacity:1;fill-rule:nonzero;stroke:none"
             d="m 5007.21,1623.84 c 0,0 -23.17,37.09 -32.81,43.09 -6.28,-0.18 -53.98,-114.21 -186.2,-115.08 -6.85,18.69 -34.97,184.5 -34.97,184.5 l -92.31,-1.08 -0.51,7.13 -115.25,-9.47 c 0,0 -275.26,-298.39 -340.34,-435.75 l -31.75,8.48 c 0,0 32.51,-33.64 45.29,-39.56 14.73,9.47 283.73,334.43 417.64,399.2 31.54,-76.36 83.56,-175.24 122.55,-225.32 0,0 200.27,118.64 223.32,188.61 l -0.3,10.22 25.64,-14.97" /><path
             id="path118"
             style="fill:#f2f3cd;fill-opacity:1;fill-rule:nonzero;stroke:none"
             d="m 4641.74,2118.61 c 0,0 97.14,0.19 119.38,-26.67 22.23,-26.85 27.57,-213.78 -7.89,-355.59 0,0 -64.12,-5.67 -205.07,2.95 1.3,58.15 2.73,223.88 -41.92,283.71 -10.01,27.23 52.87,71.97 52.87,71.97 l 82.63,23.63" /><path
             id="path120"
             style="fill:#b67a56;fill-opacity:1;fill-rule:nonzero;stroke:none"
             d="m 4572.25,2076.68 c 0,0 15.85,-20.82 28.26,-28.57 12.1,2.4 43.31,43.94 46.96,57.24 -14.01,-6.52 -75.22,-28.67 -75.22,-28.67" /><path
             id="path122"
             style="fill:#a38037;fill-opacity:1;fill-rule:nonzero;stroke:none"
             d="m 4564.04,2079.48 c 0,0 4.44,-45.52 8.89,-58.58 5.93,5.25 24.87,15.98 24.87,15.98 0,0 35.18,-22.27 38.24,-23.19 2.83,7.19 23.68,88.99 23.44,97.1 0.57,-19.27 -21.09,-107.18 -21.09,-107.18 l -39.33,25.19 -29.85,-19.17 c 0,0 -9.4,42.32 -5.17,69.85" /><path
             id="path124"
             style="fill:#d7d7a7;fill-opacity:1;fill-rule:nonzero;stroke:none"
             d="m 4583.31,2021.47 1.07,-2.84 33.96,-89.69 36.49,34.59 84.68,-82.65 33.15,11.16 -13.77,52.34 -82.57,46.18 -45.36,-42.97 -39.91,77.92" /><path
             id="path126"
             style="fill:#a38037;fill-opacity:1;fill-rule:nonzero;stroke:none"
             d="m 4583.31,2021.47 15.03,-18.57 19.99,18.11 -20.91,11.54 -14.11,-11.08" /><path
             id="path128"
             style="fill:#a38037;fill-opacity:1;fill-rule:nonzero;stroke:none"
             d="m 4602.66,2010.64 c 0,0 22.26,-31.28 41.02,-47.45 12.02,4.94 35.37,37.61 35.37,37.61 0,0 96.08,-56.44 115.93,-58.88 1.62,-2.99 13.51,-43.72 13.51,-43.72 l -40.6,-16.45 -105.49,83.03 -32.91,-35.5 -46.18,92.19 19.35,-10.83" /><path
             id="path130"
             style="fill:#7e612e;fill-opacity:1;fill-rule:nonzero;stroke:none"
             d="m 4747.95,1962.47 c -32.58,17 -68.9,38.33 -68.9,38.33 l -16.66,-36.02 76.48,-60.2 9.08,57.89" /><path
             id="path132"
             style="fill:#242c34;fill-opacity:1;fill-rule:nonzero;stroke:none"
             d="m 4546.27,1763.4 212.86,-1.89 c -1.03,-3.83 -6.92,-35.22 -6.92,-35.22 l -207.05,6.64 1.11,30.47" /><path
             id="path134"
             style="fill:#283543;fill-opacity:1;fill-rule:nonzero;stroke:none"
             d="m 4567.6,1729.04 -0.56,35 15.76,-1.04 -4.97,-36.68 -10.23,2.72" /><path
             id="path136"
             style="fill:#283543;fill-opacity:1;fill-rule:nonzero;stroke:none"
             d="m 4703.09,1727.59 -0.56,34.99 15.76,-1.05 -4.97,-36.67 -10.23,2.73" /><path
             id="path138"
             style="fill:#7e474a;fill-opacity:1;fill-rule:nonzero;stroke:none"
             d="m 4489.2,2268.98 c 0,0 -19.99,-25.75 -12.75,-44.94 7.25,-19.21 43.91,-62.75 43.91,-62.75 0,0 8.85,93.76 -31.16,107.69" /><path
             id="path140"
             style="fill:#e5ae81;fill-opacity:1;fill-rule:nonzero;stroke:none"
             d="m 4680.35,2171 c -7.38,-67.23 -62.61,-98.85 -94.1,-98.57 -31.48,0.28 -71.99,27.18 -71.71,58.66 0.28,31.48 -7.57,53.16 -21.45,89.09 -13.88,35.93 12.33,68.42 12.33,68.42 0,0 48.68,58.84 123.15,32.25 74.47,-26.57 51.78,-149.85 51.78,-149.85" /><path
             id="path142"
             style="fill:#da896f;fill-opacity:1;fill-rule:nonzero;stroke:none"
             d="m 4672.52,2192.67 c 0,0 20.14,46.75 34.73,18.83 14.57,-27.9 -39.05,-87.94 -34.73,-18.83" /><path
             id="path144"
             style="fill:#da896f;fill-opacity:1;fill-rule:nonzero;stroke:none"
             d="m 4628.5,2266.73 c 0,0 23.46,-46.72 29.02,-69.81 5.56,-23.1 9.23,-74.58 -49.56,-113.16 -24.75,-5.96 -59.27,-0.3 -59.27,-0.3 0,0 24.11,-20.38 58.35,-10.4 34.25,9.99 69.54,44.67 75.72,91.54 2.42,40.73 -10.57,109.16 -10.57,109.16 l -43.69,-7.03" /><path
             id="path146"
             style="fill:#7e474a;fill-opacity:1;fill-rule:nonzero;stroke:none"
             d="m 4573.25,2278.74 c 0,0 -31.34,-54.67 -60.27,-43.3 -28.91,11.36 -90.32,48.95 -65.8,99.36 24.53,50.4 154.81,52.96 216.04,-5.61 -1.98,-13.56 -11.27,-18.42 -11.27,-18.42 0,0 25.24,-7.01 31.88,-23.74 3.58,-14.85 2.43,-75.33 2.43,-75.33 0,0 -12.46,-13.48 -16.41,-40.62 l -11.08,2.58 0.03,75.93 -85.55,29.15" /><path
             id="path148"
             style="fill:#965c52;fill-opacity:1;fill-rule:nonzero;stroke:none"
             d="m 4485.23,2354.43 c 0,0 -42.1,-13.63 -32.92,-44.58 17.45,-28.96 165.14,10.07 163.14,18.32 -1.97,8.25 -79.26,17.58 -73.06,20.81 6.19,3.25 68.31,-1.01 92.87,-16.04 -7.72,10.35 -59.7,44.97 -150.03,21.49" /><path
             id="path150"
             style="fill:#965c52;fill-opacity:1;fill-rule:nonzero;stroke:none"
             d="m 4646.55,2295.07 c 0,0 19.85,10.02 26.45,-11.96 5.05,-21.04 -4.54,-24.65 -12.87,-22.73 -8.31,1.92 -60.94,19.37 -43.32,22.3 17.62,2.93 29.74,12.39 29.74,12.39" /><path
             id="path152"
             style="fill:#7e474a;fill-opacity:1;fill-rule:nonzero;stroke:none"
             d="m 4565.74,2206.03 c 0,0 30.49,14.49 47.08,14.44 -3.78,6.39 -28.65,6.46 -35.92,3.74 -7.27,-2.71 -11.16,-18.18 -11.16,-18.18" /><path
             id="path154"
             style="fill:#7e474a;fill-opacity:1;fill-rule:nonzero;stroke:none"
             d="m 4535.61,2200.04 c 0,0 -24.63,-4.46 -34.59,-11.66 -0.5,5.47 14.45,16.28 20,17.79 5.55,1.51 14.59,-6.13 14.59,-6.13" /><path
             id="path156"
             style="fill:#7e474a;fill-opacity:1;fill-rule:nonzero;stroke:none"
             d="m 4591.99,2193.48 c 1.1,-4.54 -0.27,-8.77 -3.04,-9.43 -2.79,-0.67 -5.92,2.47 -7.02,7.02 -1.08,4.54 0.27,8.77 3.05,9.44 2.79,0.67 5.92,-2.48 7.01,-7.03" /><path
             id="path158"
             style="fill:#7e474a;fill-opacity:1;fill-rule:nonzero;stroke:none"
             d="m 4532.55,2179.18 c 1.09,-4.54 -0.28,-8.77 -3.05,-9.44 -2.78,-0.67 -5.92,2.47 -7.02,7.02 -1.09,4.54 0.27,8.77 3.06,9.44 2.77,0.68 5.91,-2.47 7.01,-7.02" /><path
             id="path160"
             style="fill:#da896f;fill-opacity:1;fill-rule:nonzero;stroke:none"
             d="m 4550.66,2156.98 -43.73,-0.88 c 0,0 15.63,-33.74 41.02,-19.06 8.64,4.22 2.71,19.94 2.71,19.94" /><path
             id="path162"
             style="fill:#f2f3cd;fill-opacity:1;fill-rule:nonzero;stroke:none"
             d="m 4547.51,2124.41 c 0,0 7.56,-13.72 20.03,-8.58 12.45,5.14 21.01,18.28 21.01,18.28 0,0 -30.61,-7.06 -41.04,-9.7" /><path
             id="path164"
             style="fill:#da896f;fill-opacity:1;fill-rule:nonzero;stroke:none"
             d="m 4557.69,2100.59 c 0,0 9.07,2.18 15.68,-2.57 -0.82,1.88 -8.29,9.65 -15.68,2.57" /><path
             id="path166"
             style="fill:#f2f3cd;fill-opacity:1;fill-rule:nonzero;stroke:none"
             d="m 4712.15,2111.56 c 0,0 155.36,-35.41 213.99,-99.76 0,0 72.46,-104.84 89.81,-157.84 l -27.82,-16.58 c 0,0 -50.83,118.09 -127.56,156.69 -76.75,38.59 -139.75,39.83 -139.75,39.83 l -8.67,77.66" /><path
             id="path168"
             style="fill:#f2f3cd;fill-opacity:1;fill-rule:nonzero;stroke:none"
             d="m 4587.1,2018.39 c 0,0 -127.62,-95.42 -214.6,-98.41 0,0 -126.82,12.7 -178.44,33.8 l 5.38,31.96 c 0,0 122.9,-37.78 202.02,-4.31 79.11,33.46 120.86,80.67 120.86,80.67 l 64.78,-43.71" /></g></g><path
         id="path170"
         style="fill:#231f20;fill-opacity:1;fill-rule:nonzero;stroke:none"
         d="m 0,1758.22 v 66.59 h 61.4023 v 396.51 H 0 v 66.58 h 422.406 v -170.15 h -80.629 v 103.57 H 162.754 v -171.63 h 69.535 v 68.06 h 69.535 v -206.39 h -69.535 v 71.75 h -69.535 v -158.3 h 75.453 v -66.59 H 0" /><path
         id="path172"
         style="fill:#231f20;fill-opacity:1;fill-rule:nonzero;stroke:none"
         d="m 457.145,2287.9 h 220.449 v -66.58 H 611.758 V 1969.8 c 0,-37.74 -0.746,-73.24 19.234,-105.79 19.235,-31.07 51.781,-44.39 88.031,-44.39 18.497,0 31.075,3.69 48.086,11.11 27.379,11.09 42.907,42.15 51.043,68.78 6.661,24.42 5.176,53.28 5.176,77.68 v 244.13 h -65.09 v 66.58 h 210.825 v -66.58 h -53.262 v -235.25 c 0,-39.95 2.222,-85.81 -14.055,-123.55 -16.266,-36.98 -43.648,-68.05 -78.418,-88.03 -28.109,-17.01 -80.633,-25.14 -113.93,-25.14 -32.543,0 -79.886,9.6 -107.992,25.14 -31.078,16.28 -54.008,42.92 -70.289,73.24 -21.449,38.47 -20.707,82.12 -20.707,125.03 v 248.56 h -53.265 v 66.58" /><path
         id="path174"
         style="fill:#231f20;fill-opacity:1;fill-rule:nonzero;stroke:none"
         d="m 1007.49,2107.39 v 180.51 h 438.69 v -180.51 h -85.82 v 110.97 h -82.86 v -393.55 h 71.02 v -66.59 H 1104.4 v 66.59 h 71.75 v 393.55 h -82.84 v -110.97 h -85.82" /><path
         id="path176"
         style="fill:#231f20;fill-opacity:1;fill-rule:nonzero;stroke:none"
         d="m 1484.61,2287.9 h 220.45 v -66.58 h -65.84 V 1969.8 c 0,-37.74 -0.74,-73.24 19.24,-105.79 19.23,-31.07 51.77,-44.39 88.03,-44.39 18.49,0 31.07,3.69 48.08,11.11 27.37,11.09 42.91,42.15 51.05,68.78 6.66,24.42 5.18,53.28 5.18,77.68 v 244.13 h -65.11 v 66.58 h 210.84 v -66.58 h -53.26 v -235.25 c 0,-39.95 2.21,-85.81 -14.06,-123.55 -16.28,-36.98 -43.64,-68.05 -78.41,-88.03 -28.11,-17.01 -80.64,-25.14 -113.92,-25.14 -32.56,0 -79.91,9.6 -108.02,25.14 -31.07,16.28 -54,42.92 -70.28,73.24 -21.45,38.47 -20.71,82.12 -20.71,125.03 v 248.56 h -53.26 v 66.58" /><path
         id="path178"
         style="fill:#231f20;fill-opacity:1;fill-rule:nonzero;stroke:none"
         d="m 2188.83,2221.32 v -173.1 h 51.78 c 29.59,0 60.66,2.21 83.59,22.93 20.72,18.48 27.38,43.64 27.38,70.27 0,24.41 -11.1,51.05 -30.34,66.58 -17.75,13.32 -44.38,13.32 -65.83,13.32 z m -164.97,-463.1 v 66.59 h 63.62 v 397.24 h -63.62 v 65.85 h 255.96 c 45.12,0 86.55,-2.22 124.28,-30.33 35.5,-25.9 50.3,-71.76 50.3,-113.93 0,-71.76 -45.12,-123.54 -116.88,-131.67 61.4,-8.15 71.76,-29.6 87.29,-85.08 l 28.86,-102.08 h 44.38 v -66.59 h -132.42 c -17.02,49.57 -36.25,173.84 -69.54,210.09 -15.53,15.54 -36.98,13.32 -56.96,13.32 h -50.3 v -156.82 h 61.39 v -66.59 h -226.36" /><path
         id="path180"
         style="fill:#231f20;fill-opacity:1;fill-rule:nonzero;stroke:none"
         d="m 2532.05,1758.22 v 66.59 h 61.4 v 396.51 h -61.4 v 66.58 H 2970 v -162.01 h -81.37 v 95.43 H 2694.8 v -161.28 h 77.68 v 68.81 h 70.27 v -201.96 h -70.27 v 66.57 h -77.68 v -168.65 h 193.83 v 102.08 H 2970 v -168.67 h -437.95" /><path
         id="path182"
         style="fill:#231f20;fill-opacity:1;fill-rule:nonzero;stroke:none"
         d="m 807.777,1629.54 v -192.35 h 51.047 c 27.367,0 57.699,0 78.41,22.21 18.504,19.96 23.672,48.07 23.672,74.69 0,25.89 -6.66,56.98 -26.625,73.99 -23.676,21.46 -45.867,21.46 -75.457,21.46 z M 644.285,1166.43 v 66.59 h 62.141 v 397.25 h -62.141 v 65.85 h 250.047 c 48.82,0 90.246,-5.19 126.498,-42.91 30.33,-31.81 44.39,-75.46 44.39,-119.12 0,-53.25 -14.79,-97.63 -55.48,-133.14 -35.51,-30.34 -88.041,-30.34 -132.427,-30.34 h -69.536 v -137.59 h 77.676 v -66.59 H 644.285" /><path
         id="path184"
         style="fill:#231f20;fill-opacity:1;fill-rule:nonzero;stroke:none"
         d="m 1257.52,1566.65 c -21.45,-38.46 -25.15,-88.77 -25.15,-131.68 0,-91.73 27.37,-211.57 144.26,-211.57 37.73,0 72.49,14.8 97.65,42.16 22.93,25.16 31.81,51.8 39.94,83.59 6.66,25.9 7.4,59.19 7.4,86.57 0,37.72 -7.4,105.04 -27.37,136.85 -27.37,43.65 -65.1,66.57 -116.88,66.57 -52.53,0 -95.43,-27.36 -119.85,-72.49 z m 373.59,-132.41 c 0,-38.48 -2.22,-79.16 -15.53,-113.93 -11.84,-31.81 -26.64,-62.13 -50.31,-88.03 -50.3,-53.26 -115.4,-74.72 -187.9,-74.72 -77.68,0 -137.6,19.97 -190.87,76.93 -44.38,47.36 -63.62,124.28 -63.62,186.43 0,73.98 13.33,145.73 62.89,204.17 47.35,53.26 118.36,79.9 189.38,79.9 165.71,0 255.96,-116.15 255.96,-270.75" /><path
         id="path186"
         style="fill:#231f20;fill-opacity:1;fill-rule:nonzero;stroke:none"
         d="m 1969.89,1521.53 c 0,5.92 0,11.1 -0.74,17.02 -2.96,58.43 -31.07,101.35 -93.21,101.35 -22.93,0 -46.6,-3.72 -62.14,-22.2 -12.58,-15.54 -17.76,-34.04 -17.76,-54.75 0,-44.38 43.65,-60.65 79.16,-73.23 l 64.36,-24.41 c 29.59,-10.37 53.26,-19.98 78.42,-38.47 27.37,-19.24 36.25,-41.44 45.13,-72.5 3.69,-13.32 5.17,-29.59 5.17,-43.64 0,-42.91 -12.57,-71.77 -31.81,-94.7 -32.55,-48.08 -93.96,-58.44 -136.12,-58.44 -50.3,0 -97.64,12.57 -124.28,58.44 v -49.57 h -82.86 v 184.22 h 87.29 c 0,-63.64 24.42,-125.03 96.92,-125.03 47.35,0 86.55,24.4 86.55,76.19 0,51.8 -37.73,66.59 -78.41,82.12 l -68.06,25.9 c -35.52,12.57 -62.89,23.67 -89.51,50.3 -23.67,24.4 -34.78,56.96 -34.78,91 0,48.07 20.72,84.32 32.55,100.6 22.19,31.07 63.62,53.26 124.29,53.26 45.87,0 96.17,-10.36 122.8,-53.26 v 44.39 h 82.86 v -174.59 h -85.82" /><path
         id="path188"
         style="fill:#231f20;fill-opacity:1;fill-rule:nonzero;stroke:none"
         d="m 2117.08,1515.61 v 180.51 h 438.68 v -180.51 h -85.81 v 110.96 h -82.86 v -393.55 h 71.02 v -66.59 h -244.13 v 66.59 h 71.76 v 393.55 h -82.85 v -110.96 h -85.81" /><path
         id="path190"
         style="fill:#231f20;fill-opacity:1;fill-rule:nonzero;stroke:none"
         d="m 2887.88,1521.53 c 0,5.92 0,11.1 -0.74,17.02 -2.96,58.43 -31.07,101.35 -93.21,101.35 -22.93,0 -46.61,-3.72 -62.14,-22.2 -12.58,-15.54 -17.75,-34.04 -17.75,-54.75 0,-44.38 43.64,-60.65 79.14,-73.23 l 64.38,-24.41 c 29.58,-10.37 53.25,-19.98 78.42,-38.47 27.36,-19.24 36.25,-41.44 45.11,-72.5 3.7,-13.32 5.18,-29.59 5.18,-43.64 0,-42.91 -12.58,-71.77 -31.81,-94.7 -32.56,-48.08 -93.95,-58.44 -136.11,-58.44 -50.31,0 -97.66,12.57 -124.29,58.44 v -49.57 h -82.85 v 184.22 h 87.29 c 0,-63.64 24.41,-125.03 96.91,-125.03 47.35,0 86.55,24.4 86.55,76.19 0,51.8 -37.72,66.59 -78.42,82.12 l -68.05,25.9 c -35.51,12.57 -62.88,23.67 -89.51,50.3 -23.68,24.4 -34.77,56.96 -34.77,91 0,48.07 20.71,84.32 32.54,100.6 22.21,31.07 63.62,53.26 124.29,53.26 45.87,0 96.17,-10.36 122.8,-53.26 v 44.39 h 82.85 v -174.59 h -85.81" /><path
         id="path192"
         style="fill:#231f20;fill-opacity:1;fill-rule:nonzero;stroke:none"
         d="m 643.793,2558.4 h 171.59 v -67.75 h -23.672 v 45.27 H 742.602 V 2366.1 h 32.843 v -19.53 H 684.32 v 19.53 h 32.551 v 169.82 h -49.41 v -45.27 h -23.668 v 67.75" /><path
         id="path194"
         style="fill:#231f20;fill-opacity:1;fill-rule:nonzero;stroke:none"
         d="m 868.672,2346.57 v 19.53 h 29.574 v 172.77 h -29.574 v 19.53 h 84.898 v -19.53 h -29.578 v -74.84 h 101.188 v 74.84 h -29.899 v 19.53 h 85.209 v -19.53 H 1050.9 V 2366.1 h 29.59 v -19.53 h -85.209 v 19.53 h 29.899 v 76.92 H 923.992 v -76.92 h 29.578 v -19.53 h -84.898" /><path
         id="path196"
         style="fill:#231f20;fill-opacity:1;fill-rule:nonzero;stroke:none"
         d="m 1127.87,2346.57 v 19.53 h 30.18 v 172.77 h -30.18 v 19.53 h 169.22 v -63.31 h -23.08 v 43.78 h -90.23 v -74.84 h 43.79 v 32.25 h 21.3 v -83.44 h -21.3 v 31.66 h -43.79 v -78.4 h 90.23 v 46.45 h 23.08 v -65.98 h -169.22" /></g></g></svg>